<svg xmlns="http://www.w3.org/2000/svg" viewBox="4 3 18 18">
  <path
     fill="#000000"
     d="M 4 3 L 4 5 C 4 3.9000011 4.9000011 3 6 3 L 4 3 z M 20 3 C 21.099999 3 22 3.9000011 22 5 L 22 3 L 20 3 z M 18 5 L 18 8 L 20 8 L 20 5 L 18 5 z M 22 8 C 22 9.0999989 21.109999 10 20 10 L 18 10 L 18 13 C 18 15.209998 16.209998 17 14 17 L 8 17 C 5.7900022 17 4 15.209998 4 13 L 4 20 C 4 19.450001 4.4500006 19 5 19 L 19 19 C 19.549999 19 20 19.450001 20 20 C 20 20.549999 19.549999 21 19 21 L 22 21 L 22 8 z M 4 20 L 4 21 L 5 21 C 4.4500006 21 4 20.549999 4 20 z " />
</svg>
