<svg xmlns="http://www.w3.org/2000/svg" viewBox="6.5 3 10 18">
  <path
    fill="#000000"
    d="M 6.5 3 L 6.5 8.7695312 C 6.5 6.8395332 8.0600019 5.5801558 10 5.1601562 L 10 4.5 C 10 3.6700008 10.670001 3 11.5 3 L 6.5 3 z M 11.5 3 C 12.329999 3 13 3.6700008 13 4.5 L 13 5.1894531 C 14.559998 5.5694527 15.540938 6.5504699 15.960938 7.7304688 C 16.190937 8.3504681 15.720546 9 15.060547 9 L 14.759766 9 C 14.339766 9 14.010625 8.7007809 13.890625 8.3007812 C 13.630625 7.4407821 12.919999 6.9003906 11.5 6.9003906 C 9.8100017 6.9003906 8.8007812 7.6600011 8.8007812 8.75 C 8.8007812 9.6999991 9.5307835 10.310391 11.800781 10.900391 C 14.070779 11.49039 16.5 12.460784 16.5 15.300781 L 16.5 3 L 11.5 3 z M 16.5 15.300781 C 16.5 17.350779 14.949998 18.47961 13 18.849609 L 13 19.5 C 13 20.329999 12.329999 21 11.5 21 L 16.5 21 L 16.5 15.300781 z M 11.5 21 C 10.670001 21 10 20.329999 10 19.5 L 10 18.830078 C 8.5000015 18.510078 7.1696088 17.69078 6.5996094 16.300781 C 6.3496096 15.680782 6.820235 15 7.4902344 15 L 7.7695312 15 C 8.1795308 15 8.519922 15.279922 8.6699219 15.669922 C 8.9999215 16.509921 9.8500016 17.099609 11.5 17.099609 C 13.709998 17.099609 14.199219 16.000546 14.199219 15.310547 C 14.199219 14.380548 13.699216 13.50039 11.199219 12.900391 C 8.4092215 12.230391 6.5 11.079529 6.5 8.7695312 L 6.5 21 L 11.5 21 z " />
</svg>
