<svg xmlns="http://www.w3.org/2000/svg" viewBox="3 2 18 20">
  <path
    fill="#000000"
    d="M 3 2 L 3 8 C 3 7.4500005 3.4500006 7 4 7 L 20 7 C 20.549999 7 21 7.4500006 21 8 L 21 2 L 12 2 C 13.099999 2 14 2.9000011 14 4 C 14 5.0999989 13.099999 6 12 6 C 10.900001 6 10 5.0999989 10 4 C 10 2.9000011 10.900001 2 12 2 L 3 2 z M 21 8 C 21 8.5499995 20.549999 9 20 9 L 15 9 L 15 21 C 15 21.549999 14.549999 22 14 22 L 21 22 L 21 8 z M 14 22 C 13.450001 22 13 21.549999 13 21 L 13 16 L 11 16 L 11 21 C 11 21.549999 10.549999 22 10 22 L 14 22 z M 10 22 C 9.4500005 22 9 21.549999 9 21 L 9 9 L 4 9 C 3.4500006 9 3 8.5499995 3 8 L 3 22 L 10 22 z " />
</svg>
