<?xml version="1.0" encoding="UTF-8"?>
<svg version="1.1" viewBox="3 3.0011 18 18" xmlns="http://www.w3.org/2000/svg">
 <path d="m3 3.0011v14.459c0-0.14001 0.050405-0.25937 0.15039-0.35938l4.5996-4.6094-4.1309-4.1309c-0.77989-0.78005-0.77989-2.05 0-2.8301l1.9004-1.9004c0.77989-0.78005 2.0502-0.78005 2.8301 0l4.1387 4.1309 1.5703-1.5703 3.75 3.75-1.5703 1.5703 4.1289 4.1191c0.77989 0.78005 0.77989 2.05 0 2.8301l-1.8984 1.9004c-0.069991 0.07-1.5103 1.3201-2.8301 0l-4.1289-4.1289-4.6211 4.6191c-0.089987 0.10001-0.21963 0.15039-0.34961 0.15039h14.461v-14.666c0 0.25502-0.097996 0.51007-0.29297 0.70508l-1.8301 1.8301-3.748-3.75 1.8301-1.8301c0.28996-0.29002 0.93827-0.47003 1.4082 0l2.3398 2.3398c0.19497 0.19501 0.29297 0.45006 0.29297 0.70508v-3.334h-18zm3.9297 2.0391-1.8906 1.9004 4.1406 4.1309 1.8887-1.8906-1.4492-1.4512-0.48047 0.48047c-0.38995 0.39002-1.0202 0.39002-1.4102 0-0.38995-0.39002-0.38995-1.0201 0-1.4102l0.4707-0.49023-1.2695-1.2695zm7.8984 7.8906-1.9004 1.9004 4.1309 4.1289 1.8984-1.8984-1.2695-1.2715-0.47852 0.48047c-0.38994 0.39002-1.0202 0.39002-1.4102 0-0.38994-0.39002-0.38994-1.0201 0-1.4102l0.47852-0.48047-1.4492-1.4492zm-11.828 7.5703v0.5h0.5c-0.27996 0-0.5-0.21998-0.5-0.5z"/>
</svg>
